<svg xmlns="http://www.w3.org/2000/svg" viewBox="0 0 256 256" role="img" aria-labelledby="title desc">
  <title id="title">Logo Cluster Sriwijaya</title>
  <desc id="desc">Pohon bergaya dengan daun biru dan hijau untuk Cluster Sriwijaya.</desc>
  <defs>
    <linearGradient id="leafBlue" x1="0" y1="0" x2="1" y2="1">
      <stop offset="0" stop-color="#1087aa" />
      <stop offset="1" stop-color="#075d84" />
    </linearGradient>
    <linearGradient id="leafGreen" x1="0" y1="0" x2="1" y2="1">
      <stop offset="0" stop-color="#98bd45" />
      <stop offset="1" stop-color="#4d7d2f" />
    </linearGradient>
    <linearGradient id="trunk" x1="0" y1="0" x2="0" y2="1">
      <stop offset="0" stop-color="#8c6a35" />
      <stop offset="1" stop-color="#5f3f1e" />
    </linearGradient>
    <path id="leaf" d="M0 0C16-17 36-14 50 0 36 14 16 17 0 0Z" />
  </defs>

  <rect width="256" height="256" fill="#ffffff" />

  <g transform="translate(128 119)">
    <use href="#leaf" fill="url(#leafBlue)" transform="translate(-10 -4) rotate(180) scale(1.12 .98)" />
    <use href="#leaf" fill="url(#leafBlue)" transform="translate(-36 -3) rotate(180) scale(.88 .74)" />
    <use href="#leaf" fill="url(#leafBlue)" transform="translate(-68 0) rotate(180) scale(.68 .58)" />
    <use href="#leaf" fill="url(#leafBlue)" transform="translate(-12 20) rotate(160) scale(1.08 .92)" />
    <use href="#leaf" fill="url(#leafBlue)" transform="translate(-42 27) rotate(170) scale(.84 .7)" />
    <use href="#leaf" fill="url(#leafBlue)" transform="translate(-72 34) rotate(175) scale(.58 .52)" />
    <use href="#leaf" fill="url(#leafBlue)" transform="translate(-16 -26) rotate(202) scale(1 .86)" />
    <use href="#leaf" fill="url(#leafBlue)" transform="translate(-47 -34) rotate(214) scale(.78 .68)" />
    <use href="#leaf" fill="url(#leafBlue)" transform="translate(-78 -42) rotate(224) scale(.58 .52)" />
    <use href="#leaf" fill="url(#leafBlue)" transform="translate(-16 -54) rotate(238) scale(.8 .68)" />
    <use href="#leaf" fill="url(#leafBlue)" transform="translate(-50 -68) rotate(232) scale(.58 .52)" />
    <use href="#leaf" fill="url(#leafBlue)" transform="translate(-6 -78) rotate(258) scale(.55 .5)" />

    <use href="#leaf" fill="url(#leafGreen)" transform="translate(10 -4) scale(1.12 .98)" />
    <use href="#leaf" fill="url(#leafGreen)" transform="translate(36 -3) scale(.88 .74)" />
    <use href="#leaf" fill="url(#leafGreen)" transform="translate(68 0) scale(.68 .58)" />
    <use href="#leaf" fill="url(#leafGreen)" transform="translate(12 20) rotate(20) scale(1.08 .92)" />
    <use href="#leaf" fill="url(#leafGreen)" transform="translate(42 27) rotate(10) scale(.84 .7)" />
    <use href="#leaf" fill="url(#leafGreen)" transform="translate(72 34) rotate(5) scale(.58 .52)" />
    <use href="#leaf" fill="url(#leafGreen)" transform="translate(16 -26) rotate(-22) scale(1 .86)" />
    <use href="#leaf" fill="url(#leafGreen)" transform="translate(47 -34) rotate(-34) scale(.78 .68)" />
    <use href="#leaf" fill="url(#leafGreen)" transform="translate(78 -42) rotate(-44) scale(.58 .52)" />
    <use href="#leaf" fill="url(#leafGreen)" transform="translate(16 -54) rotate(-58) scale(.8 .68)" />
    <use href="#leaf" fill="url(#leafGreen)" transform="translate(50 -68) rotate(-52) scale(.58 .52)" />
    <use href="#leaf" fill="url(#leafGreen)" transform="translate(8 -86) rotate(-64) scale(.55 .5)" />
    <use href="#leaf" fill="url(#leafGreen)" transform="translate(-6 -104) rotate(-84) scale(.52 .46)" />
    <use href="#leaf" fill="url(#leafBlue)" transform="translate(-36 -98) rotate(242) scale(.46 .42)" />
    <use href="#leaf" fill="url(#leafGreen)" transform="translate(40 -100) rotate(-58) scale(.46 .42)" />
  </g>

  <path d="M109 207h38l-8-67c-1-8-5-14-11-18-6 4-10 10-11 18l-8 67Z" fill="url(#trunk)" />
  <path d="M101 207h54l-8-22h-38l-8 22Z" fill="#6b4823" />
  <path d="M121 140c-7-8-15-14-28-19 20 1 31 8 35 17 4-9 15-16 35-17-13 5-21 11-28 19l-4 29h-6l-4-29Z" fill="#7a572b" />

  <path d="M128 18v151" fill="none" stroke="#f7f9f0" stroke-width="8" stroke-linecap="round" />
  <path d="M128 18v151" fill="none" stroke="rgba(255,255,255,0.86)" stroke-width="3" stroke-linecap="round" />
</svg>