<svg xmlns="http://www.w3.org/2000/svg" viewBox="0 0 720 360" role="img" aria-labelledby="title desc">
  <title id="title">Logo Cluster Sriwijaya</title>
  <desc id="desc">Logo lengkap Cluster Sriwijaya dengan pohon, tulisan Cluster, dan Sriwijaya.</desc>
  <defs>
    <linearGradient id="leafBlue" x1="0" y1="0" x2="1" y2="1">
      <stop offset="0" stop-color="#1087aa" />
      <stop offset="1" stop-color="#075d84" />
    </linearGradient>
    <linearGradient id="leafGreen" x1="0" y1="0" x2="1" y2="1">
      <stop offset="0" stop-color="#9bbe49" />
      <stop offset="1" stop-color="#4d7d2f" />
    </linearGradient>
    <linearGradient id="trunk" x1="0" y1="0" x2="0" y2="1">
      <stop offset="0" stop-color="#8c6a35" />
      <stop offset="1" stop-color="#5f3f1e" />
    </linearGradient>
    <path id="leaf" d="M0 0C17-17 38-14 52 0 38 14 17 17 0 0Z" />
  </defs>

  <rect width="720" height="360" fill="#ffffff" />

  <g transform="translate(360 122)">
    <use href="#leaf" fill="url(#leafBlue)" transform="translate(-10 -3) rotate(180) scale(1.24 .9)" />
    <use href="#leaf" fill="url(#leafBlue)" transform="translate(-48 -1) rotate(180) scale(.9 .66)" />
    <use href="#leaf" fill="url(#leafBlue)" transform="translate(-84 2) rotate(180) scale(.66 .5)" />
    <use href="#leaf" fill="url(#leafBlue)" transform="translate(-22 29) rotate(158) scale(1.1 .78)" />
    <use href="#leaf" fill="url(#leafBlue)" transform="translate(-60 39) rotate(168) scale(.82 .58)" />
    <use href="#leaf" fill="url(#leafBlue)" transform="translate(-98 47) rotate(176) scale(.58 .44)" />
    <use href="#leaf" fill="url(#leafBlue)" transform="translate(-20 -31) rotate(204) scale(1.04 .76)" />
    <use href="#leaf" fill="url(#leafBlue)" transform="translate(-57 -43) rotate(214) scale(.78 .58)" />
    <use href="#leaf" fill="url(#leafBlue)" transform="translate(-92 -55) rotate(224) scale(.56 .42)" />
    <use href="#leaf" fill="url(#leafBlue)" transform="translate(-22 -68) rotate(238) scale(.84 .6)" />
    <use href="#leaf" fill="url(#leafBlue)" transform="translate(-60 -86) rotate(232) scale(.56 .42)" />
    <use href="#leaf" fill="url(#leafBlue)" transform="translate(-6 -100) rotate(258) scale(.56 .42)" />
    <use href="#leaf" fill="url(#leafBlue)" transform="translate(-44 -119) rotate(242) scale(.48 .36)" />

    <use href="#leaf" fill="url(#leafGreen)" transform="translate(10 -3) scale(1.24 .9)" />
    <use href="#leaf" fill="url(#leafGreen)" transform="translate(48 -1) scale(.9 .66)" />
    <use href="#leaf" fill="url(#leafGreen)" transform="translate(84 2) scale(.66 .5)" />
    <use href="#leaf" fill="url(#leafGreen)" transform="translate(22 29) rotate(22) scale(1.1 .78)" />
    <use href="#leaf" fill="url(#leafGreen)" transform="translate(60 39) rotate(12) scale(.82 .58)" />
    <use href="#leaf" fill="url(#leafGreen)" transform="translate(98 47) rotate(4) scale(.58 .44)" />
    <use href="#leaf" fill="url(#leafGreen)" transform="translate(20 -31) rotate(-24) scale(1.04 .76)" />
    <use href="#leaf" fill="url(#leafGreen)" transform="translate(57 -43) rotate(-34) scale(.78 .58)" />
    <use href="#leaf" fill="url(#leafGreen)" transform="translate(92 -55) rotate(-44) scale(.56 .42)" />
    <use href="#leaf" fill="url(#leafGreen)" transform="translate(22 -68) rotate(-58) scale(.84 .6)" />
    <use href="#leaf" fill="url(#leafGreen)" transform="translate(60 -86) rotate(-52) scale(.56 .42)" />
    <use href="#leaf" fill="url(#leafGreen)" transform="translate(8 -108) rotate(-66) scale(.56 .42)" />
    <use href="#leaf" fill="url(#leafGreen)" transform="translate(44 -121) rotate(-58) scale(.48 .36)" />

    <path d="M-19 101h38l-8-63c-1-8-5-14-11-18-6 4-10 10-11 18l-8 63Z" fill="url(#trunk)" />
    <path d="M-28 101h56l-8-22h-40l-8 22Z" fill="#6b4823" />
    <path d="M0-127v151" fill="none" stroke="#f8faf2" stroke-width="9" stroke-linecap="round" />
    <path d="M0-127v151" fill="none" stroke="rgba(255,255,255,0.88)" stroke-width="3" stroke-linecap="round" />
  </g>

  <g fill="#7b6037" font-family="Georgia, 'Times New Roman', serif" text-anchor="middle">
    <line x1="32" y1="238" x2="251" y2="238" stroke="#7b6037" stroke-width="5" stroke-linecap="square" />
    <line x1="469" y1="238" x2="688" y2="238" stroke="#7b6037" stroke-width="5" stroke-linecap="square" />
    <text x="360" y="250" font-size="42" font-weight="700" letter-spacing="7">CLUSTER</text>
    <text x="360" y="327" font-size="70" font-weight="700" letter-spacing="18">SRIWIJAYA</text>
  </g>
</svg>