<svg width="640" height="736" viewBox="0 0 640 736" fill="none" xmlns="http://www.w3.org/2000/svg">
  <rect width="640" height="736" fill="#E7F1EF"/>
  <rect x="0" y="0" width="640" height="210" fill="#0E3B38"/>
  <circle cx="320" cy="270" r="116" fill="#C69A35"/>
  <path d="M164 736C184 558 234 456 320 456C406 456 456 558 476 736H164Z" fill="#244B7A"/>
  <circle cx="320" cy="272" r="83" fill="#E0A985"/>
  <path d="M236 260C250 188 297 158 344 172C389 185 420 218 420 279C390 244 335 238 284 248C263 252 247 258 236 260Z" fill="#152B2A"/>
  <rect x="148" y="602" width="344" height="86" fill="#FFFFFF" fill-opacity=".82"/>
  <text x="320" y="654" text-anchor="middle" font-family="Arial, sans-serif" font-size="34" font-weight="700" fill="#0E3B38">RT 01</text>
</svg>
